<?xml version="1.0" standalone="no"?>
<!DOCTYPE svg PUBLIC "-//W3C//DTD SVG 20010904//EN"
 "http://www.w3.org/TR/2001/REC-SVG-20010904/DTD/svg10.dtd">
<svg version="1.0" xmlns="http://www.w3.org/2000/svg"
 width="100.000000pt" height="94.000000pt" viewBox="0 0 100.000000 94.000000"
 preserveAspectRatio="xMidYMid meet">

<g transform="translate(0.000000,94.000000) scale(0.100000,-0.100000)"
fill="#000000" stroke="none">
<path d="M383 925 c-114 -31 -217 -104 -275 -194 -29 -46 -34 -61 -20 -61 4 0
16 16 26 35 25 46 121 137 174 164 203 103 456 40 579 -145 42 -64 64 -72 31
-12 -94 170 -323 264 -515 213z"/>
<path d="M466 781 c-4 -5 -2 -20 3 -33 6 -14 10 -17 11 -8 1 8 3 23 5 33 3 18
-10 24 -19 8z"/>
<path d="M507 778 c-2 -7 -1 -22 3 -32 6 -18 7 -18 13 5 4 13 7 27 7 32 0 12
-18 8 -23 -5z"/>
<path d="M405 761 c-9 -16 3 -31 26 -31 14 0 19 6 17 17 -4 20 -33 29 -43 14z"/>
<path d="M545 760 c-4 -7 -3 -16 3 -22 14 -14 45 -2 40 15 -6 16 -34 21 -43 7z"/>
<path d="M603 744 c-6 -15 11 -34 32 -34 6 0 3 5 -5 10 -13 8 -12 10 4 10 15
0 16 3 6 15 -16 19 -29 19 -37 -1z"/>
<path d="M350 736 c0 -21 20 -30 33 -16 7 6 8 11 2 10 -22 -5 -29 1 -15 10 13
8 12 10 -2 10 -10 0 -18 -6 -18 -14z"/>
<path d="M542 620 c-33 -14 -42 -49 -42 -166 l0 -104 35 0 35 0 0 75 c0 68 2
75 20 75 13 0 20 7 20 20 0 15 -7 20 -25 20 -37 0 -29 34 10 41 12 3 20 12 20
24 0 23 -36 30 -73 15z"/>
<path d="M687 623 c-34 -9 -47 -56 -47 -168 l0 -105 35 0 35 0 0 75 c0 68 2
75 20 75 13 0 20 7 20 20 0 13 -7 20 -20 20 -13 0 -20 7 -20 20 0 14 7 20 24
20 15 0 26 7 29 19 7 28 -24 37 -76 24z"/>
<path d="M0 480 l0 -130 35 0 c33 0 35 2 35 33 0 20 8 41 18 50 17 16 20 14
55 -33 32 -43 42 -50 72 -50 19 0 35 3 35 6 0 3 -22 34 -50 69 -27 35 -50 67
-50 71 0 5 23 32 52 61 l52 53 -34 0 c-28 0 -44 -10 -92 -57 l-58 -57 0 57 0
57 -35 0 -35 0 0 -130z"/>
<path d="M275 526 c-82 -82 6 -219 106 -166 13 7 19 7 19 0 0 -5 14 -10 30
-10 l30 0 0 100 0 100 -30 0 c-16 0 -30 -5 -30 -10 0 -7 -6 -7 -19 0 -34 18
-80 12 -106 -14z m113 -38 c15 -15 15 -61 0 -76 -15 -15 -51 -15 -66 0 -7 7
-12 24 -12 38 0 31 17 50 45 50 12 0 26 -5 33 -12z"/>
<path d="M799 521 c-79 -79 14 -213 112 -161 13 7 19 7 19 0 0 -5 14 -10 30
-10 l30 0 0 100 0 100 -30 0 c-16 0 -30 -5 -30 -10 0 -7 -6 -7 -19 0 -37 19
-81 12 -112 -19z m123 -46 c17 -39 -3 -75 -42 -75 -23 0 -33 6 -42 25 -17 39
3 75 42 75 23 0 33 -6 42 -25z"/>
<path d="M80 262 c0 -19 60 -100 104 -140 178 -164 470 -158 639 12 52 52 107
136 89 136 -5 0 -25 -24 -45 -54 -123 -185 -376 -248 -579 -145 -53 27 -149
118 -174 164 -17 33 -34 46 -34 27z"/>
<path d="M640 228 c0 -18 26 -43 33 -31 2 4 -4 17 -14 27 -16 16 -19 17 -19 4z"/>
<path d="M336 214 c-4 -9 -3 -20 0 -23 4 -3 9 0 11 7 3 6 9 12 14 12 4 0 5 -8
2 -17 -6 -16 -5 -16 10 -4 15 12 17 11 17 -5 1 -18 1 -18 11 -1 13 22 4 33
-32 42 -20 5 -28 2 -33 -11z"/>
<path d="M531 189 c-1 -22 3 -26 24 -26 19 0 23 3 15 12 -5 6 -6 16 -2 20 4 5
-1 5 -10 2 -9 -3 -19 -1 -22 6 -2 7 -5 0 -5 -14z"/>
<path d="M592 193 c2 -10 10 -18 18 -18 8 0 16 8 18 18 2 12 -3 17 -18 17 -15
0 -20 -5 -18 -17z"/>
<path d="M426 185 c-7 -20 23 -33 34 -14 5 7 6 17 4 21 -9 13 -32 9 -38 -7z"/>
<path d="M483 185 c-8 -22 6 -33 17 -15 13 20 12 30 0 30 -6 0 -13 -7 -17 -15z"/>
</g>
</svg>
